<svg width="1034" height="137" viewBox="0 0 1034 137" fill="none" xmlns="http://www.w3.org/2000/svg">
<g opacity="0.8" filter="url(#filter0_f_983_158642)">
<path d="M45.7366 42H52.0966C54.8966 42 57.2566 42.42 59.1766 43.26C61.1366 44.1 62.6166 45.28 63.6166 46.8C64.6166 48.28 65.1166 50.02 65.1166 52.02C65.1166 53.7 64.7966 55.18 64.1566 56.46C63.5166 57.7 62.6966 58.72 61.6966 59.52C60.6966 60.28 59.6366 60.82 58.5166 61.14C60.6366 61.46 62.4566 62.16 63.9766 63.24C65.5366 64.32 66.7166 65.68 67.5166 67.32C68.3566 68.92 68.7766 70.72 68.7766 72.72C68.7766 74.96 68.2366 76.94 67.1566 78.66C66.0766 80.34 64.4766 81.66 62.3566 82.62C60.2766 83.54 57.7566 84 54.7966 84H48.1366C48.1366 84 48.1366 83.82 48.1366 83.46C48.1766 83.1 48.1966 82.74 48.1966 82.38C48.1966 82.02 48.1966 81.84 48.1966 81.84H54.5566C56.6366 81.84 58.3966 81.48 59.8366 80.76C61.2766 80 62.3766 78.9 63.1366 77.46C63.8966 76.02 64.2766 74.3 64.2766 72.3C64.2766 70.06 63.8366 68.24 62.9566 66.84C62.1166 65.44 61.0166 64.38 59.6566 63.66C58.2966 62.94 56.8166 62.46 55.2166 62.22C53.6566 61.94 52.1566 61.8 50.7166 61.8V61.26C51.6366 61.26 52.6566 61.16 53.7766 60.96C54.8966 60.76 55.9766 60.36 57.0166 59.76C58.0566 59.16 58.9166 58.28 59.5966 57.12C60.2766 55.92 60.6166 54.36 60.6166 52.44C60.6166 50.64 60.2766 49.1 59.5966 47.82C58.9566 46.54 57.9766 45.58 56.6566 44.94C55.3766 44.26 53.7766 43.92 51.8566 43.92H46.3366C46.3366 43.88 46.2766 43.72 46.1566 43.44C46.0766 43.12 45.9766 42.8 45.8566 42.48C45.7766 42.16 45.7366 42 45.7366 42ZM48.6766 42V84H44.7766V42H48.6766ZM44.9566 79.62V84H40.1566L40.2166 83.4C40.2966 83.4 40.4166 83.4 40.5766 83.4C40.7766 83.4 40.8966 83.4 40.9366 83.4C41.9766 83.4 42.8766 83.04 43.6366 82.32C44.3966 81.56 44.7766 80.66 44.7766 79.62H44.9566ZM44.9566 46.38H44.7766C44.7766 45.34 44.3966 44.46 43.6366 43.74C42.8766 42.98 41.9766 42.6 40.9366 42.6C40.8966 42.6 40.7766 42.6 40.5766 42.6C40.4166 42.6 40.2966 42.6 40.2166 42.6L40.1566 42H44.9566V46.38ZM81.7329 48V70.68C81.7329 74.56 82.7129 77.62 84.6729 79.86C86.6729 82.1 89.3929 83.22 92.8329 83.22C96.6329 83.22 99.6129 82.16 101.773 80.04C103.973 77.92 105.073 75.02 105.073 71.34V48H107.833V71.34C107.833 75.5 106.493 78.8 103.813 81.24C101.173 83.64 97.5329 84.84 92.8929 84.84C88.2929 84.84 84.6329 83.64 81.9129 81.24C79.2329 78.84 77.8929 75.56 77.8929 71.4V48H81.7329ZM78.0129 48V51.18H77.8929C77.8529 50.46 77.5529 49.86 76.9929 49.38C76.4729 48.86 75.8129 48.6 75.0129 48.6C75.0129 48.6 74.8529 48.6 74.5329 48.6C74.2529 48.6 74.1129 48.6 74.1129 48.6V48H78.0129ZM85.5129 48V48.6C85.5129 48.6 85.3529 48.6 85.0329 48.6C84.7529 48.6 84.6129 48.6 84.6129 48.6C83.8529 48.6 83.1729 48.86 82.5729 49.38C82.0129 49.86 81.7329 50.46 81.7329 51.18H81.6129V48H85.5129ZM105.193 48V51.18H105.073C105.073 50.46 104.793 49.86 104.233 49.38C103.673 48.86 102.993 48.6 102.193 48.6C102.193 48.6 102.033 48.6 101.713 48.6C101.433 48.6 101.293 48.6 101.293 48.6V48H105.193ZM111.613 48V48.6C111.613 48.6 111.453 48.6 111.133 48.6C110.853 48.6 110.713 48.6 110.713 48.6C109.953 48.6 109.293 48.86 108.733 49.38C108.173 49.86 107.873 50.46 107.833 51.18H107.713V48H111.613ZM125.725 48V84H121.945V48H125.725ZM122.125 80.16V84H117.025V83.4C117.025 83.4 117.165 83.4 117.445 83.4C117.725 83.4 117.865 83.4 117.865 83.4C118.985 83.4 119.925 83.08 120.685 82.44C121.485 81.8 121.905 81.04 121.945 80.16H122.125ZM125.545 80.16H125.725C125.765 81.04 126.165 81.8 126.925 82.44C127.725 83.08 128.685 83.4 129.805 83.4C129.805 83.4 129.925 83.4 130.165 83.4C130.445 83.4 130.585 83.4 130.585 83.4L130.645 84H125.545V80.16ZM125.545 51.84V48H130.645L130.585 48.6C130.585 48.6 130.445 48.6 130.165 48.6C129.925 48.6 129.805 48.6 129.805 48.6C128.685 48.6 127.725 48.92 126.925 49.56C126.165 50.16 125.765 50.92 125.725 51.84H125.545ZM122.125 51.84H121.945C121.905 50.92 121.485 50.16 120.685 49.56C119.925 48.92 118.985 48.6 117.865 48.6C117.825 48.6 117.665 48.6 117.385 48.6C117.145 48.6 117.025 48.6 117.025 48.6V48H122.125V51.84ZM145.341 48V84H141.501V48H145.341ZM161.481 82.14L161.361 84H145.221V82.14H161.481ZM164.841 75.42L161.541 84H152.421L154.461 82.14C156.461 82.14 158.061 81.86 159.261 81.3C160.501 80.7 161.501 79.9 162.261 78.9C163.021 77.86 163.681 76.7 164.241 75.42H164.841ZM141.621 80.16L142.401 84H137.181V83.4C137.181 83.4 137.321 83.4 137.601 83.4C137.881 83.4 138.021 83.4 138.021 83.4C139.021 83.4 139.841 83.08 140.481 82.44C141.121 81.8 141.461 81.04 141.501 80.16H141.621ZM145.161 51.84V48H149.601V48.6C149.601 48.6 149.481 48.6 149.241 48.6C149.001 48.6 148.881 48.6 148.881 48.6C147.921 48.6 147.081 48.92 146.361 49.56C145.681 50.16 145.341 50.92 145.341 51.84H145.161ZM141.621 51.84H141.501C141.461 50.92 141.101 50.16 140.421 49.56C139.741 48.92 138.901 48.6 137.901 48.6C137.901 48.6 137.781 48.6 137.541 48.6C137.301 48.6 137.181 48.6 137.181 48.6V48H141.621V51.84ZM187.924 48C191.884 48 195.304 48.72 198.184 50.16C201.064 51.6 203.284 53.68 204.844 56.4C206.404 59.08 207.184 62.28 207.184 66C207.184 69.72 206.404 72.92 204.844 75.6C203.284 78.28 201.064 80.36 198.184 81.84C195.304 83.28 191.884 84 187.924 84H175.144L175.024 82.2C177.824 82.2 180.164 82.2 182.044 82.2C183.964 82.2 185.424 82.2 186.424 82.2C187.424 82.2 187.924 82.2 187.924 82.2C192.564 82.2 196.204 80.76 198.844 77.88C201.524 74.96 202.864 71 202.864 66C202.864 61 201.524 57.06 198.844 54.18C196.204 51.26 192.564 49.8 187.924 49.8C187.924 49.8 187.404 49.8 186.364 49.8C185.324 49.8 183.804 49.8 181.804 49.8C179.804 49.8 177.344 49.8 174.424 49.8V48H187.924ZM175.984 48V84H172.084V48H175.984ZM172.204 80.1V84H167.884V83.4C167.884 83.4 168.004 83.4 168.244 83.4C168.524 83.4 168.664 83.4 168.664 83.4C169.624 83.4 170.424 83.08 171.064 82.44C171.704 81.76 172.044 80.98 172.084 80.1H172.204ZM172.204 51.9H172.084C172.044 50.94 171.684 50.16 171.004 49.56C170.364 48.92 169.564 48.6 168.604 48.6C168.604 48.6 168.484 48.6 168.244 48.6C168.004 48.6 167.884 48.6 167.884 48.6V48H172.204V51.9ZM210.189 80.1C210.469 79.54 210.909 79.18 211.509 79.02C212.109 78.82 212.709 78.86 213.309 79.14C213.949 79.38 214.429 79.9 214.749 80.7C215.229 81.82 215.409 82.9 215.289 83.94C215.209 84.94 214.909 85.84 214.389 86.64C213.869 87.44 213.189 88.08 212.349 88.56C211.549 89.04 210.669 89.3 209.709 89.34L209.589 88.86C210.789 88.46 211.569 87.92 211.929 87.24C212.289 86.56 212.389 85.86 212.229 85.14C212.109 84.46 211.889 83.92 211.569 83.52C211.329 83.2 211.049 82.88 210.729 82.56C210.449 82.24 210.229 81.88 210.069 81.48C209.949 81.04 209.989 80.58 210.189 80.1ZM275.563 66.48L274.843 75.9C273.803 77.62 272.483 79.16 270.883 80.52C269.323 81.84 267.463 82.9 265.303 83.7C263.183 84.46 260.743 84.84 257.983 84.84C253.823 84.8 250.123 83.88 246.883 82.08C243.643 80.28 241.103 77.76 239.263 74.52C237.463 71.24 236.563 67.38 236.563 62.94C236.563 58.58 237.463 54.78 239.263 51.54C241.063 48.26 243.583 45.72 246.823 43.92C250.103 42.08 253.943 41.16 258.343 41.16C261.303 41.16 263.963 41.56 266.323 42.36C268.723 43.12 270.803 44.08 272.563 45.24L273.763 53.7H273.223C272.343 50.18 270.543 47.52 267.823 45.72C265.103 43.88 261.943 42.96 258.343 42.96C254.823 42.96 251.763 43.8 249.163 45.48C246.603 47.12 244.603 49.44 243.163 52.44C241.763 55.4 241.063 58.88 241.063 62.88C241.063 66.88 241.763 70.38 243.163 73.38C244.603 76.38 246.583 78.72 249.103 80.4C251.663 82.08 254.623 82.96 257.983 83.04C260.823 83.04 263.443 82.52 265.843 81.48C268.283 80.4 270.323 78.66 271.963 76.26C273.603 73.82 274.643 70.56 275.083 66.48H275.563ZM301.769 47.16C304.569 47.16 307.189 47.62 309.629 48.54C312.109 49.42 314.269 50.7 316.109 52.38C317.989 54.06 319.449 56.06 320.489 58.38C321.529 60.66 322.049 63.2 322.049 66C322.049 68.8 321.529 71.36 320.489 73.68C319.449 75.96 317.989 77.94 316.109 79.62C314.269 81.3 312.109 82.6 309.629 83.52C307.189 84.4 304.569 84.84 301.769 84.84C298.969 84.84 296.349 84.4 293.909 83.52C291.469 82.6 289.309 81.3 287.429 79.62C285.589 77.94 284.149 75.96 283.109 73.68C282.069 71.36 281.549 68.8 281.549 66C281.549 63.2 282.069 60.66 283.109 58.38C284.149 56.06 285.589 54.06 287.429 52.38C289.309 50.7 291.469 49.42 293.909 48.54C296.349 47.62 298.969 47.16 301.769 47.16ZM301.769 83.04C304.729 83.04 307.409 82.32 309.809 80.88C312.209 79.44 314.109 77.44 315.509 74.88C316.909 72.32 317.609 69.36 317.609 66C317.609 62.6 316.909 59.64 315.509 57.12C314.109 54.56 312.209 52.56 309.809 51.12C307.409 49.68 304.729 48.96 301.769 48.96C298.849 48.96 296.189 49.68 293.789 51.12C291.389 52.56 289.489 54.56 288.089 57.12C286.689 59.64 285.989 62.6 285.989 66C285.989 69.36 286.689 72.32 288.089 74.88C289.489 77.44 291.389 79.44 293.789 80.88C296.189 82.32 298.849 83.04 301.769 83.04ZM331.201 47.1L364.441 78.42L365.041 84.84L331.801 53.34L331.201 47.1ZM331.321 80.28V84H326.821V83.4C326.821 83.4 326.981 83.4 327.301 83.4C327.661 83.4 327.841 83.4 327.841 83.4C328.761 83.4 329.541 83.1 330.181 82.5C330.821 81.9 331.141 81.16 331.141 80.28H331.321ZM333.841 80.28C333.841 81.16 334.161 81.9 334.801 82.5C335.481 83.1 336.261 83.4 337.141 83.4C337.141 83.4 337.301 83.4 337.621 83.4C337.981 83.4 338.161 83.4 338.161 83.4V84H333.661V80.28H333.841ZM331.201 47.1L333.781 50.46L333.841 84H331.141V54.6C331.141 52.56 331.041 50.8 330.841 49.32C330.681 47.84 330.601 47.1 330.601 47.1H331.201ZM365.041 48V77.16C365.041 78.44 365.081 79.68 365.161 80.88C365.241 82.04 365.321 83 365.401 83.76C365.521 84.48 365.581 84.84 365.581 84.84H365.041L362.401 81.66V48H365.041ZM364.861 51.72V48H369.361V48.6C369.361 48.6 369.181 48.6 368.821 48.6C368.501 48.6 368.341 48.6 368.341 48.6C367.461 48.6 366.681 48.9 366.001 49.5C365.361 50.1 365.041 50.84 365.041 51.72H364.861ZM362.401 51.72C362.361 50.84 362.021 50.1 361.381 49.5C360.741 48.9 359.961 48.6 359.041 48.6C359.041 48.6 358.861 48.6 358.501 48.6C358.181 48.6 358.021 48.6 358.021 48.6V48H362.521V51.72H362.401ZM394.046 47.16C396.806 47.16 399.366 47.62 401.726 48.54C404.126 49.42 406.226 50.7 408.026 52.38C409.866 54.06 411.286 56.06 412.286 58.38C413.326 60.66 413.846 63.2 413.846 66C413.846 68.8 413.326 71.36 412.286 73.68C411.286 75.96 409.866 77.94 408.026 79.62C406.226 81.3 404.126 82.6 401.726 83.52C399.366 84.4 396.806 84.84 394.046 84.84C391.286 84.84 388.706 84.4 386.306 83.52C383.906 82.6 381.786 81.3 379.946 79.62C378.146 77.94 376.726 75.96 375.686 73.68C374.686 71.36 374.186 68.8 374.186 66C374.186 63.2 374.686 60.66 375.686 58.38C376.726 56.06 378.146 54.06 379.946 52.38C381.786 50.7 383.906 49.42 386.306 48.54C388.706 47.62 391.286 47.16 394.046 47.16ZM394.046 83.04C396.926 83.04 399.526 82.32 401.846 80.88C404.166 79.44 406.006 77.44 407.366 74.88C408.766 72.32 409.466 69.36 409.466 66C409.466 62.6 408.766 59.64 407.366 57.12C406.006 54.56 404.166 52.56 401.846 51.12C399.526 49.68 396.926 48.96 394.046 48.96C391.166 48.96 388.566 49.68 386.246 51.12C383.926 52.56 382.066 54.56 380.666 57.12C379.306 59.64 378.626 62.6 378.626 66C378.626 69.36 379.306 72.32 380.666 74.88C382.066 77.44 383.926 79.44 386.246 80.88C388.566 82.32 391.166 83.04 394.046 83.04ZM393.926 84.78L394.526 83.46C395.126 83.46 395.946 83.58 396.986 83.82C398.026 84.06 399.226 84.4 400.586 84.84C401.986 85.28 403.526 85.8 405.206 86.4C406.886 87.04 408.686 87.72 410.606 88.44C412.526 89.2 414.546 90 416.666 90.84C418.666 91.64 420.826 92.24 423.146 92.64C425.466 93.04 427.806 93.18 430.166 93.06C432.526 92.98 434.786 92.56 436.946 91.8C439.106 91.04 441.006 89.92 442.646 88.44L442.826 88.68C442.586 89.32 441.986 90.12 441.026 91.08C440.106 92.08 438.866 93.04 437.306 93.96C435.746 94.88 433.906 95.6 431.786 96.12C429.706 96.68 427.366 96.86 424.766 96.66C422.166 96.46 419.346 95.72 416.306 94.44C414.706 93.76 412.966 92.94 411.086 91.98C409.246 91.02 407.346 90.04 405.386 89.04C403.426 88.08 401.466 87.2 399.506 86.4C397.586 85.64 395.726 85.1 393.926 84.78ZM427.26 48V70.68C427.26 74.56 428.24 77.62 430.2 79.86C432.2 82.1 434.92 83.22 438.36 83.22C442.16 83.22 445.14 82.16 447.3 80.04C449.5 77.92 450.6 75.02 450.6 71.34V48H453.36V71.34C453.36 75.5 452.02 78.8 449.34 81.24C446.7 83.64 443.06 84.84 438.42 84.84C433.82 84.84 430.16 83.64 427.44 81.24C424.76 78.84 423.42 75.56 423.42 71.4V48H427.26ZM423.54 48V51.18H423.42C423.38 50.46 423.08 49.86 422.52 49.38C422 48.86 421.34 48.6 420.54 48.6C420.54 48.6 420.38 48.6 420.06 48.6C419.78 48.6 419.64 48.6 419.64 48.6V48H423.54ZM431.04 48V48.6C431.04 48.6 430.88 48.6 430.56 48.6C430.28 48.6 430.14 48.6 430.14 48.6C429.38 48.6 428.7 48.86 428.1 49.38C427.54 49.86 427.26 50.46 427.26 51.18H427.14V48H431.04ZM450.72 48V51.18H450.6C450.6 50.46 450.32 49.86 449.76 49.38C449.2 48.86 448.52 48.6 447.72 48.6C447.72 48.6 447.56 48.6 447.24 48.6C446.96 48.6 446.82 48.6 446.82 48.6V48H450.72ZM457.14 48V48.6C457.14 48.6 456.98 48.6 456.66 48.6C456.38 48.6 456.24 48.6 456.24 48.6C455.48 48.6 454.82 48.86 454.26 49.38C453.7 49.86 453.4 50.46 453.36 51.18H453.24V48H457.14ZM470.712 48V84H466.872V48H470.712ZM486.852 82.14L486.732 84H470.592V82.14H486.852ZM484.032 65.1V66.9H470.592V65.1H484.032ZM486.792 48V49.86H470.592V48H486.792ZM490.212 75.42L486.912 84H477.792L479.832 82.14C481.832 82.14 483.432 81.86 484.632 81.3C485.872 80.7 486.872 79.9 487.632 78.9C488.392 77.86 489.052 76.7 489.612 75.42H490.212ZM484.032 66.78V70.2H483.372V69.42C483.372 68.74 483.172 68.16 482.772 67.68C482.372 67.16 481.752 66.9 480.912 66.9V66.78H484.032ZM484.032 61.8V65.22H480.912V65.1C481.752 65.1 482.372 64.86 482.772 64.38C483.172 63.86 483.372 63.26 483.372 62.58V61.8H484.032ZM486.792 49.68V53.82H486.132V52.92C486.132 52.08 485.852 51.36 485.292 50.76C484.772 50.16 484.052 49.86 483.132 49.86V49.68H486.792ZM486.792 47.04V48.6L479.952 48C481.192 48 482.512 47.9 483.912 47.7C485.312 47.46 486.272 47.24 486.792 47.04ZM466.992 80.16L467.772 84H462.552V83.4C462.552 83.4 462.692 83.4 462.972 83.4C463.252 83.4 463.392 83.4 463.392 83.4C464.392 83.4 465.212 83.08 465.852 82.44C466.492 81.8 466.832 81.04 466.872 80.16H466.992ZM466.992 51.78H466.872C466.832 50.86 466.492 50.1 465.852 49.5C465.212 48.9 464.392 48.6 463.392 48.6C463.392 48.6 463.252 48.6 462.972 48.6C462.692 48.6 462.552 48.6 462.552 48.6V48H467.772L466.992 51.78ZM502.04 48H509.78C511.66 48 513.34 48.22 514.82 48.66C516.34 49.1 517.62 49.74 518.66 50.58C519.74 51.42 520.56 52.44 521.12 53.64C521.68 54.84 521.96 56.2 521.96 57.72C521.96 59.4 521.56 60.96 520.76 62.4C519.96 63.84 518.84 65.02 517.4 65.94C516 66.86 514.4 67.42 512.6 67.62C513.28 67.9 514.06 68.52 514.94 69.48C515.86 70.44 516.64 71.38 517.28 72.3C517.28 72.3 517.54 72.66 518.06 73.38C518.58 74.06 519.24 74.92 520.04 75.96C520.88 76.96 521.7 77.92 522.5 78.84C523.34 79.76 524.1 80.56 524.78 81.24C525.5 81.92 526.26 82.46 527.06 82.86C527.9 83.22 528.86 83.4 529.94 83.4V84H528.08C525.88 84 524.06 83.72 522.62 83.16C521.22 82.6 520.08 81.92 519.2 81.12C518.32 80.28 517.56 79.48 516.92 78.72C516.76 78.52 516.38 78.02 515.78 77.22C515.22 76.38 514.6 75.48 513.92 74.52C513.24 73.56 512.62 72.7 512.06 71.94C511.5 71.14 511.16 70.66 511.04 70.5C510.24 69.46 509.32 68.54 508.28 67.74C507.24 66.9 506.14 66.48 504.98 66.48V65.88C504.98 65.88 505.3 65.9 505.94 65.94C506.58 65.94 507.4 65.92 508.4 65.88C509.52 65.84 510.64 65.76 511.76 65.64C512.88 65.48 513.92 65.04 514.88 64.32C515.88 63.6 516.66 62.4 517.22 60.72C517.38 60.28 517.5 59.76 517.58 59.16C517.66 58.56 517.68 57.94 517.64 57.3C517.6 56.18 517.38 55.18 516.98 54.3C516.62 53.42 516.08 52.66 515.36 52.02C514.68 51.38 513.86 50.88 512.9 50.52C511.94 50.16 510.86 49.96 509.66 49.92C507.78 49.84 506.14 49.82 504.74 49.86C503.34 49.9 502.64 49.9 502.64 49.86C502.64 49.82 502.58 49.66 502.46 49.38C502.38 49.06 502.28 48.76 502.16 48.48C502.08 48.16 502.04 48 502.04 48ZM502.76 48V84H498.92V48H502.76ZM499.1 80.16L499.82 84H494.72V83.4C494.72 83.4 494.86 83.4 495.14 83.4C495.42 83.4 495.56 83.4 495.56 83.4C496.52 83.4 497.32 83.08 497.96 82.44C498.6 81.8 498.94 81.04 498.98 80.16H499.1ZM499.1 51.78H498.98C498.94 50.86 498.6 50.1 497.96 49.5C497.32 48.9 496.52 48.6 495.56 48.6C495.56 48.6 495.42 48.6 495.14 48.6C494.86 48.6 494.72 48.6 494.72 48.6V48H499.82L499.1 51.78ZM502.58 80.16H502.76C502.8 81.04 503.14 81.8 503.78 82.44C504.42 83.08 505.22 83.4 506.18 83.4C506.18 83.4 506.3 83.4 506.54 83.4C506.82 83.4 506.96 83.4 506.96 83.4L507.02 84H501.86L502.58 80.16ZM532.337 80.1C532.617 79.54 533.057 79.18 533.657 79.02C534.257 78.82 534.857 78.86 535.457 79.14C536.097 79.38 536.577 79.9 536.897 80.7C537.377 81.82 537.557 82.9 537.437 83.94C537.357 84.94 537.057 85.84 536.537 86.64C536.017 87.44 535.337 88.08 534.497 88.56C533.697 89.04 532.817 89.3 531.857 89.34L531.737 88.86C532.937 88.46 533.717 87.92 534.077 87.24C534.437 86.56 534.537 85.86 534.377 85.14C534.257 84.46 534.037 83.92 533.717 83.52C533.477 83.2 533.197 82.88 532.877 82.56C532.597 82.24 532.377 81.88 532.217 81.48C532.097 81.04 532.137 80.58 532.337 80.1ZM566.451 42H574.911C576.711 42 578.331 42.26 579.771 42.78C581.251 43.3 582.491 44.06 583.491 45.06C584.491 46.02 585.251 47.2 585.771 48.6C586.331 49.96 586.611 51.52 586.611 53.28C586.611 55.2 586.151 57.04 585.231 58.8C584.351 60.56 583.131 62 581.571 63.12C580.051 64.2 578.331 64.74 576.411 64.74C577.091 65.02 577.831 65.6 578.631 66.48C579.431 67.32 580.131 68.14 580.731 68.94C580.731 68.94 580.991 69.34 581.511 70.14C582.071 70.9 582.751 71.84 583.551 72.96C584.391 74.08 585.231 75.18 586.071 76.26C586.911 77.34 587.631 78.2 588.231 78.84C589.031 79.72 589.831 80.5 590.631 81.18C591.431 81.86 592.291 82.4 593.211 82.8C594.171 83.2 595.231 83.4 596.391 83.4V84H593.091C591.251 84 589.651 83.72 588.291 83.16C586.971 82.6 585.851 81.92 584.931 81.12C584.011 80.28 583.231 79.48 582.591 78.72C582.471 78.56 582.131 78.1 581.571 77.34C581.051 76.58 580.411 75.68 579.651 74.64C578.931 73.56 578.211 72.5 577.491 71.46C576.771 70.42 576.151 69.54 575.631 68.82C575.111 68.06 574.811 67.62 574.731 67.5C573.971 66.5 573.131 65.58 572.211 64.74C571.291 63.9 570.291 63.48 569.211 63.48V62.88C569.211 62.88 569.511 62.9 570.111 62.94C570.751 62.94 571.511 62.92 572.391 62.88C573.431 62.84 574.571 62.68 575.811 62.4C577.051 62.12 578.211 61.54 579.291 60.66C580.371 59.78 581.191 58.44 581.751 56.64C581.871 56.2 581.971 55.66 582.051 55.02C582.131 54.34 582.151 53.68 582.111 53.04C582.071 50.32 581.371 48.16 580.011 46.56C578.691 44.92 576.911 44.04 574.671 43.92C573.551 43.84 572.391 43.82 571.191 43.86C570.031 43.86 569.051 43.86 568.251 43.86C567.451 43.86 567.051 43.86 567.051 43.86C567.051 43.82 566.991 43.66 566.871 43.38C566.791 43.06 566.691 42.76 566.571 42.48C566.491 42.16 566.451 42 566.451 42ZM567.231 42V84H563.331V42H567.231ZM563.511 79.62V84H558.711V83.4C558.711 83.4 558.831 83.4 559.071 83.4C559.351 83.4 559.491 83.4 559.491 83.4C560.531 83.4 561.411 83.04 562.131 82.32C562.891 81.56 563.291 80.66 563.331 79.62H563.511ZM563.511 46.38H563.331C563.291 45.34 562.891 44.46 562.131 43.74C561.411 42.98 560.531 42.6 559.491 42.6C559.491 42.6 559.351 42.6 559.071 42.6C558.831 42.6 558.711 42.6 558.711 42.6V42H563.511V46.38ZM567.051 79.62H567.231C567.231 80.66 567.611 81.56 568.371 82.32C569.131 83.04 570.031 83.4 571.071 83.4C571.071 83.4 571.191 83.4 571.431 83.4C571.671 83.4 571.791 83.4 571.791 83.4V84H567.051V79.62ZM605.9 48V84H602.12V48H605.9ZM602.3 80.16V84H597.2V83.4C597.2 83.4 597.34 83.4 597.62 83.4C597.9 83.4 598.04 83.4 598.04 83.4C599.16 83.4 600.1 83.08 600.86 82.44C601.66 81.8 602.08 81.04 602.12 80.16H602.3ZM605.72 80.16H605.9C605.94 81.04 606.34 81.8 607.1 82.44C607.9 83.08 608.86 83.4 609.98 83.4C609.98 83.4 610.1 83.4 610.34 83.4C610.62 83.4 610.76 83.4 610.76 83.4L610.82 84H605.72V80.16ZM605.72 51.84V48H610.82L610.76 48.6C610.76 48.6 610.62 48.6 610.34 48.6C610.1 48.6 609.98 48.6 609.98 48.6C608.86 48.6 607.9 48.92 607.1 49.56C606.34 50.16 605.94 50.92 605.9 51.84H605.72ZM602.3 51.84H602.12C602.08 50.92 601.66 50.16 600.86 49.56C600.1 48.92 599.16 48.6 598.04 48.6C598 48.6 597.84 48.6 597.56 48.6C597.32 48.6 597.2 48.6 597.2 48.6V48H602.3V51.84ZM628.097 47.16C629.217 47.16 630.197 47.2 631.037 47.28C631.877 47.36 632.597 47.46 633.197 47.58C633.837 47.66 634.377 47.78 634.817 47.94C635.297 48.06 635.717 48.18 636.077 48.3L636.137 54.24H635.417C635.417 52.6 634.857 51.32 633.737 50.4C632.617 49.44 630.877 48.96 628.517 48.96C626.517 48.96 624.797 49.52 623.357 50.64C621.957 51.72 621.277 53.06 621.317 54.66C621.317 55.18 621.377 55.72 621.497 56.28C621.657 56.8 621.897 57.32 622.217 57.84C622.577 58.36 623.057 58.88 623.657 59.4L635.777 68.76C636.697 69.52 637.377 70.5 637.817 71.7C638.257 72.86 638.497 74.02 638.537 75.18C638.577 76.94 638.117 78.56 637.157 80.04C636.197 81.52 634.897 82.7 633.257 83.58C631.657 84.42 629.877 84.84 627.917 84.84C626.757 84.84 625.497 84.74 624.137 84.54C622.817 84.34 621.577 84.04 620.417 83.64C619.257 83.2 618.297 82.66 617.537 82.02C617.417 81.46 617.357 80.76 617.357 79.92C617.357 79.04 617.417 78.12 617.537 77.16C617.697 76.2 617.897 75.34 618.137 74.58H618.857C618.697 76.38 618.957 77.92 619.637 79.2C620.317 80.48 621.317 81.46 622.637 82.14C623.957 82.78 625.497 83.08 627.257 83.04C629.737 82.96 631.677 82.34 633.077 81.18C634.517 79.98 635.237 78.4 635.237 76.44C635.237 75.48 635.057 74.62 634.697 73.86C634.377 73.06 633.837 72.32 633.077 71.64L621.077 62.4C619.957 61.44 619.197 60.38 618.797 59.22C618.397 58.06 618.197 56.96 618.197 55.92C618.197 54.28 618.637 52.8 619.517 51.48C620.397 50.16 621.577 49.12 623.057 48.36C624.577 47.56 626.257 47.16 628.097 47.16ZM636.017 47.7L636.077 48.78H631.817V47.7H636.017ZM653.231 48V84H649.391V48H653.231ZM669.371 82.14L669.251 84H653.111V82.14H669.371ZM666.551 65.1V66.9H653.111V65.1H666.551ZM669.311 48V49.86H653.111V48H669.311ZM672.731 75.42L669.431 84H660.311L662.351 82.14C664.351 82.14 665.951 81.86 667.151 81.3C668.391 80.7 669.391 79.9 670.151 78.9C670.911 77.86 671.571 76.7 672.131 75.42H672.731ZM666.551 66.78V70.2H665.891V69.42C665.891 68.74 665.691 68.16 665.291 67.68C664.891 67.16 664.271 66.9 663.431 66.9V66.78H666.551ZM666.551 61.8V65.22H663.431V65.1C664.271 65.1 664.891 64.86 665.291 64.38C665.691 63.86 665.891 63.26 665.891 62.58V61.8H666.551ZM669.311 49.68V53.82H668.651V52.92C668.651 52.08 668.371 51.36 667.811 50.76C667.291 50.16 666.571 49.86 665.651 49.86V49.68H669.311ZM669.311 47.04V48.6L662.471 48C663.711 48 665.031 47.9 666.431 47.7C667.831 47.46 668.791 47.24 669.311 47.04ZM649.511 80.16L650.291 84H645.071V83.4C645.071 83.4 645.211 83.4 645.491 83.4C645.771 83.4 645.911 83.4 645.911 83.4C646.911 83.4 647.731 83.08 648.371 82.44C649.011 81.8 649.351 81.04 649.391 80.16H649.511ZM649.511 51.78H649.391C649.351 50.86 649.011 50.1 648.371 49.5C647.731 48.9 646.911 48.6 645.911 48.6C645.911 48.6 645.771 48.6 645.491 48.6C645.211 48.6 645.071 48.6 645.071 48.6V48H650.291L649.511 51.78ZM709.685 47.16L726.185 83.64H721.445L708.665 52.5L709.685 47.16ZM698.105 79.62C697.665 80.82 697.725 81.76 698.285 82.44C698.845 83.08 699.485 83.4 700.205 83.4H700.685V84H689.225V83.4C689.225 83.4 689.305 83.4 689.465 83.4C689.625 83.4 689.705 83.4 689.705 83.4C690.545 83.4 691.405 83.12 692.285 82.56C693.165 81.96 693.925 80.98 694.565 79.62H698.105ZM709.685 47.16L710.105 51.3L696.365 83.82H692.585L706.805 53.34C706.805 53.34 706.905 53.1 707.105 52.62C707.345 52.14 707.605 51.56 707.885 50.88C708.205 50.16 708.485 49.46 708.725 48.78C708.965 48.1 709.105 47.56 709.145 47.16H709.685ZM716.765 70.02V71.82H700.865V70.02H716.765ZM719.825 79.62H724.385C724.985 80.98 725.725 81.96 726.605 82.56C727.485 83.12 728.325 83.4 729.125 83.4C729.125 83.4 729.205 83.4 729.365 83.4C729.525 83.4 729.605 83.4 729.605 83.4V84H717.305V83.4H717.785C718.465 83.4 719.085 83.08 719.645 82.44C720.205 81.76 720.265 80.82 719.825 79.62ZM735.791 47.1L769.031 78.42L769.631 84.84L736.391 53.34L735.791 47.1ZM735.911 80.28V84H731.411V83.4C731.411 83.4 731.571 83.4 731.891 83.4C732.251 83.4 732.431 83.4 732.431 83.4C733.351 83.4 734.131 83.1 734.771 82.5C735.411 81.9 735.731 81.16 735.731 80.28H735.911ZM738.431 80.28C738.431 81.16 738.751 81.9 739.391 82.5C740.071 83.1 740.851 83.4 741.731 83.4C741.731 83.4 741.891 83.4 742.211 83.4C742.571 83.4 742.751 83.4 742.751 83.4V84H738.251V80.28H738.431ZM735.791 47.1L738.371 50.46L738.431 84H735.731V54.6C735.731 52.56 735.631 50.8 735.431 49.32C735.271 47.84 735.191 47.1 735.191 47.1H735.791ZM769.631 48V77.16C769.631 78.44 769.671 79.68 769.751 80.88C769.831 82.04 769.911 83 769.991 83.76C770.111 84.48 770.171 84.84 770.171 84.84H769.631L766.991 81.66V48H769.631ZM769.451 51.72V48H773.951V48.6C773.951 48.6 773.771 48.6 773.411 48.6C773.091 48.6 772.931 48.6 772.931 48.6C772.051 48.6 771.271 48.9 770.591 49.5C769.951 50.1 769.631 50.84 769.631 51.72H769.451ZM766.991 51.72C766.951 50.84 766.611 50.1 765.971 49.5C765.331 48.9 764.551 48.6 763.631 48.6C763.631 48.6 763.451 48.6 763.091 48.6C762.771 48.6 762.611 48.6 762.611 48.6V48H767.111V51.72H766.991ZM799.408 48C803.368 48 806.788 48.72 809.668 50.16C812.548 51.6 814.768 53.68 816.328 56.4C817.888 59.08 818.668 62.28 818.668 66C818.668 69.72 817.888 72.92 816.328 75.6C814.768 78.28 812.548 80.36 809.668 81.84C806.788 83.28 803.368 84 799.408 84H786.628L786.508 82.2C789.308 82.2 791.648 82.2 793.528 82.2C795.448 82.2 796.908 82.2 797.908 82.2C798.908 82.2 799.408 82.2 799.408 82.2C804.048 82.2 807.688 80.76 810.328 77.88C813.008 74.96 814.348 71 814.348 66C814.348 61 813.008 57.06 810.328 54.18C807.688 51.26 804.048 49.8 799.408 49.8C799.408 49.8 798.888 49.8 797.848 49.8C796.808 49.8 795.288 49.8 793.288 49.8C791.288 49.8 788.828 49.8 785.908 49.8V48H799.408ZM787.468 48V84H783.568V48H787.468ZM783.688 80.1V84H779.368V83.4C779.368 83.4 779.488 83.4 779.728 83.4C780.008 83.4 780.148 83.4 780.148 83.4C781.108 83.4 781.908 83.08 782.548 82.44C783.188 81.76 783.528 80.98 783.568 80.1H783.688ZM783.688 51.9H783.568C783.528 50.94 783.168 50.16 782.488 49.56C781.848 48.92 781.048 48.6 780.088 48.6C780.088 48.6 779.968 48.6 779.728 48.6C779.488 48.6 779.368 48.6 779.368 48.6V48H783.688V51.9ZM848.774 42V84H844.874V42H848.774ZM864.974 82.14V84H848.594V82.14H864.974ZM862.394 62.4V64.2H848.594V62.4H862.394ZM864.974 42V43.86H848.594V42H864.974ZM868.634 74.28L865.154 84H855.194L857.354 82.14C859.474 82.14 861.194 81.82 862.514 81.18C863.874 80.5 864.974 79.56 865.814 78.36C866.654 77.16 867.394 75.8 868.034 74.28H868.634ZM862.394 64.08V68.04H861.794V67.14C861.794 66.34 861.514 65.66 860.954 65.1C860.394 64.5 859.714 64.2 858.914 64.2V64.08H862.394ZM862.394 58.56V62.52H858.914V62.4C859.714 62.36 860.394 62.06 860.954 61.5C861.514 60.9 861.794 60.2 861.794 59.4V58.56H862.394ZM864.974 43.68V48.48H864.374V47.4C864.374 46.44 864.034 45.62 863.354 44.94C862.674 44.22 861.834 43.84 860.834 43.8V43.68H864.974ZM864.974 40.92V42.66L857.654 42C858.534 42 859.454 41.94 860.414 41.82C861.414 41.7 862.334 41.56 863.174 41.4C864.014 41.24 864.614 41.08 864.974 40.92ZM845.054 79.62V84H840.254V83.4C840.254 83.4 840.374 83.4 840.614 83.4C840.894 83.4 841.034 83.4 841.034 83.4C842.074 83.4 842.954 83.04 843.674 82.32C844.434 81.56 844.834 80.66 844.874 79.62H845.054ZM845.054 46.38H844.874C844.874 45.34 844.494 44.46 843.734 43.74C842.974 42.98 842.074 42.6 841.034 42.6C841.034 42.6 840.914 42.6 840.674 42.6C840.434 42.6 840.314 42.6 840.314 42.6L840.254 42H845.054V46.38ZM891.443 47.16L907.943 83.64H903.203L890.423 52.5L891.443 47.16ZM879.863 79.62C879.423 80.82 879.483 81.76 880.043 82.44C880.603 83.08 881.243 83.4 881.963 83.4H882.443V84H870.983V83.4C870.983 83.4 871.063 83.4 871.223 83.4C871.383 83.4 871.463 83.4 871.463 83.4C872.303 83.4 873.163 83.12 874.043 82.56C874.923 81.96 875.683 80.98 876.323 79.62H879.863ZM891.443 47.16L891.863 51.3L878.123 83.82H874.343L888.563 53.34C888.563 53.34 888.663 53.1 888.863 52.62C889.103 52.14 889.363 51.56 889.643 50.88C889.963 50.16 890.243 49.46 890.483 48.78C890.723 48.1 890.863 47.56 890.903 47.16H891.443ZM898.523 70.02V71.82H882.623V70.02H898.523ZM901.583 79.62H906.143C906.743 80.98 907.483 81.96 908.363 82.56C909.243 83.12 910.083 83.4 910.883 83.4C910.883 83.4 910.963 83.4 911.123 83.4C911.283 83.4 911.363 83.4 911.363 83.4V84H899.063V83.4H899.543C900.223 83.4 900.843 83.08 901.403 82.44C901.963 81.76 902.023 80.82 901.583 79.62ZM921.688 48H929.428C931.308 48 932.988 48.22 934.468 48.66C935.988 49.1 937.268 49.74 938.308 50.58C939.388 51.42 940.208 52.44 940.768 53.64C941.328 54.84 941.608 56.2 941.608 57.72C941.608 59.4 941.208 60.96 940.408 62.4C939.608 63.84 938.488 65.02 937.048 65.94C935.648 66.86 934.048 67.42 932.248 67.62C932.928 67.9 933.708 68.52 934.588 69.48C935.508 70.44 936.288 71.38 936.928 72.3C936.928 72.3 937.188 72.66 937.708 73.38C938.228 74.06 938.888 74.92 939.688 75.96C940.528 76.96 941.348 77.92 942.148 78.84C942.988 79.76 943.748 80.56 944.428 81.24C945.148 81.92 945.908 82.46 946.708 82.86C947.548 83.22 948.508 83.4 949.588 83.4V84H947.728C945.528 84 943.708 83.72 942.268 83.16C940.868 82.6 939.728 81.92 938.848 81.12C937.968 80.28 937.208 79.48 936.568 78.72C936.408 78.52 936.028 78.02 935.428 77.22C934.868 76.38 934.248 75.48 933.568 74.52C932.888 73.56 932.268 72.7 931.708 71.94C931.148 71.14 930.808 70.66 930.688 70.5C929.888 69.46 928.968 68.54 927.928 67.74C926.888 66.9 925.788 66.48 924.628 66.48V65.88C924.628 65.88 924.948 65.9 925.588 65.94C926.228 65.94 927.048 65.92 928.048 65.88C929.168 65.84 930.288 65.76 931.408 65.64C932.528 65.48 933.568 65.04 934.528 64.32C935.528 63.6 936.308 62.4 936.868 60.72C937.028 60.28 937.148 59.76 937.228 59.16C937.308 58.56 937.328 57.94 937.288 57.3C937.248 56.18 937.028 55.18 936.628 54.3C936.268 53.42 935.728 52.66 935.008 52.02C934.328 51.38 933.508 50.88 932.548 50.52C931.588 50.16 930.508 49.96 929.308 49.92C927.428 49.84 925.788 49.82 924.388 49.86C922.988 49.9 922.288 49.9 922.288 49.86C922.288 49.82 922.228 49.66 922.108 49.38C922.028 49.06 921.928 48.76 921.808 48.48C921.728 48.16 921.688 48 921.688 48ZM922.408 48V84H918.568V48H922.408ZM918.748 80.16L919.468 84H914.368V83.4C914.368 83.4 914.508 83.4 914.788 83.4C915.068 83.4 915.208 83.4 915.208 83.4C916.168 83.4 916.968 83.08 917.608 82.44C918.248 81.8 918.588 81.04 918.628 80.16H918.748ZM918.748 51.78H918.628C918.588 50.86 918.248 50.1 917.608 49.5C916.968 48.9 916.168 48.6 915.208 48.6C915.208 48.6 915.068 48.6 914.788 48.6C914.508 48.6 914.368 48.6 914.368 48.6V48H919.468L918.748 51.78ZM922.228 80.16H922.408C922.448 81.04 922.788 81.8 923.428 82.44C924.068 83.08 924.868 83.4 925.828 83.4C925.828 83.4 925.948 83.4 926.188 83.4C926.468 83.4 926.608 83.4 926.608 83.4L926.668 84H921.508L922.228 80.16ZM955.166 47.1L988.406 78.42L989.006 84.84L955.766 53.34L955.166 47.1ZM955.286 80.28V84H950.786V83.4C950.786 83.4 950.946 83.4 951.266 83.4C951.626 83.4 951.806 83.4 951.806 83.4C952.726 83.4 953.506 83.1 954.146 82.5C954.786 81.9 955.106 81.16 955.106 80.28H955.286ZM957.806 80.28C957.806 81.16 958.126 81.9 958.766 82.5C959.446 83.1 960.226 83.4 961.106 83.4C961.106 83.4 961.266 83.4 961.586 83.4C961.946 83.4 962.126 83.4 962.126 83.4V84H957.626V80.28H957.806ZM955.166 47.1L957.746 50.46L957.806 84H955.106V54.6C955.106 52.56 955.006 50.8 954.806 49.32C954.646 47.84 954.566 47.1 954.566 47.1H955.166ZM989.006 48V77.16C989.006 78.44 989.046 79.68 989.126 80.88C989.206 82.04 989.286 83 989.366 83.76C989.486 84.48 989.546 84.84 989.546 84.84H989.006L986.366 81.66V48H989.006ZM988.826 51.72V48H993.326V48.6C993.326 48.6 993.146 48.6 992.786 48.6C992.466 48.6 992.306 48.6 992.306 48.6C991.426 48.6 990.646 48.9 989.966 49.5C989.326 50.1 989.006 50.84 989.006 51.72H988.826ZM986.366 51.72C986.326 50.84 985.986 50.1 985.346 49.5C984.706 48.9 983.926 48.6 983.006 48.6C983.006 48.6 982.826 48.6 982.466 48.6C982.146 48.6 981.986 48.6 981.986 48.6V48H986.486V51.72H986.366Z" fill="url(#paint0_linear_983_158642)"/>
</g>
<defs>
<filter id="filter0_f_983_158642" x="0.156738" y="0.919922" width="1033.17" height="136.04" filterUnits="userSpaceOnUse" color-interpolation-filters="sRGB">
<feFlood flood-opacity="0" result="BackgroundImageFix"/>
<feBlend mode="normal" in="SourceGraphic" in2="BackgroundImageFix" result="shape"/>
<feGaussianBlur stdDeviation="20" result="effect1_foregroundBlur_983_158642"/>
</filter>
<linearGradient id="paint0_linear_983_158642" x1="516.609" y1="25" x2="516.609" y2="106" gradientUnits="userSpaceOnUse">
<stop stop-color="#E4D9BD"/>
<stop offset="1" stop-color="#AA8246"/>
</linearGradient>
</defs>
</svg>
